<svg xmlns="http://www.w3.org/2000/svg" width="1200" height="630" viewBox="0 0 1200 630">
  <defs>
    <linearGradient id="bg" x1="0%" y1="0%" x2="100%" y2="100%">
      <stop offset="0%" stop-color="#2d5016"/>
      <stop offset="100%" stop-color="#1a3a0a"/>
    </linearGradient>
    <linearGradient id="accentGrad" x1="0%" y1="0%" x2="100%" y2="0%">
      <stop offset="0%" stop-color="#c8a96e"/>
      <stop offset="100%" stop-color="#1a3a0a"/>
    </linearGradient>
  </defs>

  <!-- 배경 -->
  <rect width="1200" height="630" fill="url(#bg)"/>

  <!-- Geometric pattern -->
  <circle cx="1282" cy="438" r="23" fill="#1a3a0a" opacity="0.14"/>
    <circle cx="882" cy="316" r="25" fill="#1a3a0a" opacity="0.12"/>
    <circle cx="664" cy="461" r="29" fill="#1a3a0a" opacity="0.20"/>
    <circle cx="206" cy="168" r="66" fill="#1a3a0a" opacity="0.18"/>
    <circle cx="364" cy="314" r="30" fill="#1a3a0a" opacity="0.05"/>
    <circle cx="895" cy="312" r="40" fill="#1a3a0a" opacity="0.20"/>
    <rect x="820" y="-91" width="64" height="57" rx="8" fill="#2d5016" opacity="0.09" transform="rotate(25, 301, 615)"/>
    <rect x="1067" y="557" width="30" height="60" rx="8" fill="#2d5016" opacity="0.14" transform="rotate(14, 593, 454)"/>
    <rect x="-29" y="293" width="76" height="84" rx="8" fill="#2d5016" opacity="0.12" transform="rotate(29, 836, 234)"/>
    <rect x="109" y="265" width="62" height="97" rx="8" fill="#2d5016" opacity="0.08" transform="rotate(32, 589, 341)"/>
    <rect x="773" y="-43" width="98" height="78" rx="8" fill="#2d5016" opacity="0.10" transform="rotate(43, 432, 17)"/>
    <rect x="53" y="719" width="57" height="43" rx="8" fill="#2d5016" opacity="0.10" transform="rotate(10, 113, 623)"/>
    <rect x="579" y="680" width="75" height="94" rx="8" fill="#2d5016" opacity="0.12" transform="rotate(17, 1003, 141)"/>
    <rect x="-45" y="408" width="21" height="61" rx="8" fill="#2d5016" opacity="0.14" transform="rotate(10, 759, 292)"/>
    <polygon points="144,-69 176,-5 112,-5" fill="#1a3a0a" opacity="0.09"/>
    <polygon points="465,413 524,531 406,531" fill="#1a3a0a" opacity="0.12"/>
    <polygon points="770,-158 838,-22 702,-22" fill="#1a3a0a" opacity="0.13"/>
    <polygon points="509,-17 576,117 442,117" fill="#1a3a0a" opacity="0.13"/>

  <!-- Wave at bottom -->
  <path d="M0,572 C360,601 840,543 1200,572 L1200,630 L0,630Z" fill="#1a3a0a" opacity="0.3"/>

  <!-- 중앙 텍스트 카드 -->
  <rect x="80" y="195" width="1040" height="260" rx="20" fill="rgba(0,0,0,0.35)" filter="url(#blur-bg)"/>
  <filter id="blur-bg"><feGaussianBlur stdDeviation="8"/></filter>

  <text x="600" y="270" text-anchor="middle" font-family="'Noto Sans JP','Noto Sans KR','Pretendard',sans-serif" font-size="44" font-weight="700" fill="#ffffff" letter-spacing="2">
    구글 검색엔진 크롤링 최적화 기술 블로그
  </text>
  <text x="600" y="330" text-anchor="middle" font-family="'Noto Sans JP','Noto Sans KR','Pretendard',sans-serif" font-size="22" font-weight="400" fill="rgba(255,255,255,0.85)">
     — 풀스택 SEO 기술연구
  </text>

  <!-- Accent line -->
  <line x1="450" y1="355" x2="750" y2="355" stroke="#c8a96e" stroke-width="3" stroke-linecap="round" opacity="0.8"/>

  <!-- 하단 CTA -->
  <rect x="440" y="385" width="320" height="40" rx="20" fill="#c8a96e" opacity="0.9"/>
  <text x="600" y="411" text-anchor="middle" font-family="'Noto Sans JP','Noto Sans KR','Pretendard',sans-serif" font-size="16" font-weight="600" fill="#ffffff">
    ▼ 자세히 보기
  </text>

  <!-- 상단 브랜드 -->
  <text x="60" y="55" font-family="'Noto Sans JP','Noto Sans KR','Pretendard',sans-serif" font-size="18" font-weight="600" fill="rgba(255,255,255,0.6)">
     구글 검색엔진 크롤링 최적화 기술 블로그 — 풀스택 SEO 기술연구
  </text>
</svg>